<?xml version="1.0" encoding="UTF-8"?> <svg xmlns="http://www.w3.org/2000/svg" width="48" height="48" viewBox="0 0 48 48" fill="none"><path d="M13.8914 31.6966C10.9294 29.7881 8.48612 27.0721 6.81628 23.819C8.46706 20.6336 10.8896 18.3749 13.8914 16.4407C16.9527 14.4684 20.4543 13.4314 24.0172 13.4336C27.5802 13.4358 31.0807 14.4773 34.1398 16.4535C37.1439 18.3943 39.5612 20.6143 41.2068 23.7963C39.5405 27.0519 37.1 29.7714 34.1398 31.6838C31.0807 33.66 27.5802 34.7015 24.0172 34.7037C20.4543 34.7059 16.9527 33.6689 13.8914 31.6966Z" stroke="#EAFFFF" stroke-width="1.5"></path><circle cx="23.8625" cy="21.8586" r="8.42505" stroke="#EAFFFF" stroke-width="1.5"></circle><mask id="path-3-inside-1_1437_5799" fill="white"><path fill-rule="evenodd" clip-rule="evenodd" d="M19.1515 21.8584C21.2328 21.8584 22.9201 20.1712 22.9201 18.0899C22.9201 17.3944 22.7317 16.743 22.4032 16.1838C22.8703 16.0638 23.36 16 23.8646 16C27.0992 16 29.7214 18.6222 29.7214 21.8568C29.7214 25.0914 27.0992 27.7136 23.8646 27.7136C20.63 27.7136 18.0078 25.0914 18.0078 21.8568C18.0078 21.7985 18.0087 21.7404 18.0104 21.6825C18.3703 21.7968 18.7537 21.8584 19.1515 21.8584Z"></path></mask><path fill-rule="evenodd" clip-rule="evenodd" d="M19.1515 21.8584C21.2328 21.8584 22.9201 20.1712 22.9201 18.0899C22.9201 17.3944 22.7317 16.743 22.4032 16.1838C22.8703 16.0638 23.36 16 23.8646 16C27.0992 16 29.7214 18.6222 29.7214 21.8568C29.7214 25.0914 27.0992 27.7136 23.8646 27.7136C20.63 27.7136 18.0078 25.0914 18.0078 21.8568C18.0078 21.7985 18.0087 21.7404 18.0104 21.6825C18.3703 21.7968 18.7537 21.8584 19.1515 21.8584Z" fill="#FB3D5D"></path><path d="M22.4032 16.1838L22.1544 15.2152L20.8685 15.5455L21.541 16.6903L22.4032 16.1838ZM18.0104 21.6825L18.3128 20.7294L17.0495 20.3285L17.0108 21.6533L18.0104 21.6825ZM21.9201 18.0899C21.9201 19.6189 20.6805 20.8584 19.1515 20.8584V22.8584C21.7851 22.8584 23.9201 20.7235 23.9201 18.0899H21.9201ZM21.541 16.6903C21.7817 17.1001 21.9201 17.5773 21.9201 18.0899H23.9201C23.9201 17.2115 23.6817 16.3859 23.2654 15.6773L21.541 16.6903ZM22.652 17.1524C23.0385 17.0531 23.4446 17 23.8646 17V15C23.2754 15 22.7022 15.0745 22.1544 15.2152L22.652 17.1524ZM23.8646 17C26.5469 17 28.7214 19.1745 28.7214 21.8568H30.7214C30.7214 18.0699 27.6515 15 23.8646 15V17ZM28.7214 21.8568C28.7214 24.5391 26.5469 26.7136 23.8646 26.7136V28.7136C27.6515 28.7136 30.7214 25.6437 30.7214 21.8568H28.7214ZM23.8646 26.7136C21.1823 26.7136 19.0078 24.5391 19.0078 21.8568H17.0078C17.0078 25.6437 20.0777 28.7136 23.8646 28.7136V26.7136ZM19.0078 21.8568C19.0078 21.8082 19.0085 21.7599 19.0099 21.7117L17.0108 21.6533C17.0088 21.7209 17.0078 21.7888 17.0078 21.8568H19.0078ZM19.1515 20.8584C18.8576 20.8584 18.5761 20.8129 18.3128 20.7294L17.7079 22.6357C18.1645 22.7806 18.6499 22.8584 19.1515 22.8584V20.8584Z" fill="#FB3D5D" mask="url(#path-3-inside-1_1437_5799)"></path></svg> 