<?xml version="1.0" encoding="UTF-8"?> <svg xmlns="http://www.w3.org/2000/svg" width="48" height="48" viewBox="0 0 48 48" fill="none"><path d="M7.54768 23.4047L23.3976 14.6873C23.7727 14.481 24.2273 14.481 24.6024 14.6873L40.4523 23.4047C41.3158 23.8796 41.3158 25.1204 40.4523 25.5953L25.5662 33.7826C24.591 34.319 23.409 34.319 22.4338 33.7826L7.54768 25.5953C6.68421 25.1204 6.68421 23.8796 7.54768 23.4047Z" stroke="#EAFFFF" stroke-width="1.5"></path><path d="M7.54768 31.9047L22.4338 23.7174C23.409 23.181 24.591 23.181 25.5662 23.7174L40.4523 31.9047C41.3158 32.3796 41.3158 33.6204 40.4523 34.0953L25.5662 42.2826C24.591 42.819 23.409 42.819 22.4338 42.2826L7.54768 34.0953C6.68421 33.6204 6.68421 32.3796 7.54768 31.9047Z" stroke="#EAFFFF" stroke-width="1.5"></path><path d="M22.0723 5.06022L7.18624 13.2476C5.80469 14.0074 5.80469 15.9926 7.18624 16.7524L22.0723 24.9398C23.2727 25.6 24.7273 25.6 25.9277 24.9398L40.8138 16.7524C42.1953 15.9926 42.1953 14.0074 40.8138 13.2476L25.9277 5.06022C24.7273 4.40004 23.2727 4.40004 22.0723 5.06022Z" fill="#E359FF"></path></svg> 