<?xml version="1.0" encoding="UTF-8"?> <svg xmlns="http://www.w3.org/2000/svg" width="48" height="48" viewBox="0 0 48 48" fill="none"><path d="M6.5963 39.9707C7.3236 37.2563 8.69388 34.757 10.5912 32.6842C12.4886 30.6113 14.8572 29.0259 17.4968 28.0619C20.1364 27.0979 22.9693 26.7838 25.756 27.146C28.5426 27.5083 31.201 28.5363 33.5064 30.1431" stroke="#EAFFFF" stroke-width="1.5" stroke-linecap="round"></path><path d="M33.25 14C33.25 19.1086 29.1086 23.25 24 23.25C18.8914 23.25 14.75 19.1086 14.75 14C14.75 8.89137 18.8914 4.75 24 4.75C29.1086 4.75 33.25 8.89137 33.25 14Z" stroke="#EAFFFF" stroke-width="1.5" stroke-linecap="round" stroke-linejoin="round"></path><path d="M34.3297 34.6751C36.7069 34.6751 38.634 32.748 38.634 30.3707C38.634 27.9935 36.7069 26.0664 34.3297 26.0664C31.9525 26.0664 30.0254 27.9935 30.0254 30.3707C30.0254 32.748 31.9525 34.6751 34.3297 34.6751Z" fill="#8655FF"></path><path d="M39.6989 44.0051C42.0761 44.0051 44.0032 42.078 44.0032 39.7008C44.0032 37.3236 42.0761 35.3965 39.6989 35.3965C37.3216 35.3965 35.3945 37.3236 35.3945 39.7008C35.3945 42.078 37.3216 44.0051 39.6989 44.0051Z" fill="#8655FF"></path><path d="M28.945 44.0051C31.3222 44.0051 33.2493 42.078 33.2493 39.7008C33.2493 37.3236 31.3222 35.3965 28.945 35.3965C26.5677 35.3965 24.6406 37.3236 24.6406 39.7008C24.6406 42.078 26.5677 44.0051 28.945 44.0051Z" fill="#8655FF"></path></svg> 