<?xml version="1.0" encoding="UTF-8"?> <svg xmlns="http://www.w3.org/2000/svg" width="48" height="48" viewBox="0 0 48 48" fill="none"><path d="M8.7658 22.5873C8.7658 20.8601 10.2116 19.0871 13.0307 17.7012C15.8012 16.3391 19.6812 15.4754 24.0079 15.4754C28.3345 15.4754 32.2146 16.3391 34.9851 17.7012C37.8042 19.0871 39.25 20.8601 39.25 22.5873C39.25 24.3145 37.8042 26.0876 34.9851 27.4735C32.2146 28.8355 28.3345 29.6992 24.0079 29.6992C19.6812 29.6992 15.8012 28.8355 13.0307 27.4735C10.2116 26.0876 8.7658 24.3145 8.7658 22.5873Z" stroke="#EAFFFF" stroke-width="1.5"></path><ellipse cx="24.0079" cy="13.8627" rx="15.9921" ry="7.86191" transform="rotate(180 24.0079 13.8627)" fill="#8655FF"></ellipse><path d="M8.7658 31.3119C8.7658 29.5847 10.2116 27.8117 13.0307 26.4258C15.8012 25.0637 19.6812 24.2 24.0079 24.2C28.3345 24.2 32.2146 25.0637 34.9851 26.4258C37.8042 27.8117 39.25 29.5847 39.25 31.3119C39.25 33.0391 37.8042 34.8122 34.9851 36.1981C32.2146 37.5601 28.3345 38.4238 24.0079 38.4238C19.6812 38.4238 15.8012 37.5601 13.0307 36.1981C10.2116 34.8122 8.7658 33.0391 8.7658 31.3119Z" stroke="#EAFFFF" stroke-width="1.5"></path></svg> 