<?xml version="1.0" encoding="UTF-8"?> <svg xmlns="http://www.w3.org/2000/svg" width="48" height="48" viewBox="0 0 48 48" fill="none"><path d="M40.5693 14.4829L36.4811 13.8988C35.8816 13.8132 35.3387 13.5234 34.9105 13.0953C34.483 12.6678 34.1847 12.1168 34.0992 11.5184L33.5149 7.4285C32.0967 6.60946 30.5774 5.97951 28.9957 5.55469L25.6859 8.04081C25.203 8.40354 24.6029 8.56288 23.9989 8.56288C23.3949 8.56288 22.7948 8.40354 22.3119 8.04081L19.0021 5.55469C17.421 5.98149 15.902 6.61134 14.4829 7.4285L13.8987 11.5177C13.813 12.1173 13.5242 12.6676 13.0959 13.0959C12.6676 13.5242 12.1173 13.813 11.5177 13.8987L7.4285 14.4829C6.60946 15.9011 5.97951 17.4204 5.55469 19.0021L8.0223 22.2872C8.39695 22.786 8.5724 23.6486 8.58428 24.2723C8.59543 24.8578 8.41193 25.1918 8.06021 25.6601L5.55469 28.9957C5.98149 30.5767 6.61134 32.0958 7.4285 33.5149L11.5177 34.0991C12.1173 34.1847 12.6676 34.4736 13.0959 34.9019C13.5242 35.3302 13.813 35.8805 13.8987 36.4801L14.4829 40.5693C15.9011 41.3883 17.4204 42.0183 19.0021 42.4431L22.3119 39.957C22.7948 39.5942 23.3949 39.4349 23.9989 39.4349C24.6029 39.4349 25.203 39.5942 25.6859 39.957L28.9957 42.4431C30.5767 42.0163 32.0958 41.3864 33.5149 40.5693L34.0969 36.4955C34.1839 35.8867 34.6475 35.1591 35.0786 34.7204C35.4963 34.2954 35.8746 34.1856 36.4646 34.1013L40.5693 33.5149C41.3883 32.0967 42.0183 30.5774 42.4431 28.9957L39.9755 25.7105C39.6008 25.2117 39.4254 24.3492 39.4135 23.7255C39.4023 23.14 39.5858 22.806 39.9376 22.3377L42.4431 19.0021C42.0163 17.421 41.3864 15.902 40.5693 14.4829Z" stroke="#EAFFFF" stroke-width="1.5" stroke-linecap="round" stroke-linejoin="round"></path><path d="M23.5572 15.6031C23.7427 15.2395 24.2623 15.2395 24.4479 15.6031L26.6555 19.929C26.7282 20.0714 26.8645 20.1704 27.0224 20.1955L31.8187 20.9584C32.2219 21.0225 32.3824 21.5166 32.094 21.8055L28.662 25.2419C28.5491 25.3549 28.497 25.5152 28.5219 25.6731L29.2786 30.4704C29.3422 30.8737 28.9218 31.1791 28.558 30.994L24.2292 28.7919C24.0868 28.7194 23.9183 28.7194 23.7758 28.7919L19.4471 30.994C19.0832 31.1791 18.6629 30.8737 18.7265 30.4704L19.4832 25.6731C19.5081 25.5152 19.456 25.3549 19.3431 25.2419L15.9111 21.8055C15.6226 21.5166 15.7832 21.0225 16.1863 20.9584L20.9827 20.1955C21.1405 20.1704 21.2769 20.0714 21.3495 19.929L23.5572 15.6031Z" fill="#D1FF5F"></path></svg> 