<?xml version="1.0" encoding="UTF-8"?> <svg xmlns="http://www.w3.org/2000/svg" width="48" height="48" viewBox="0 0 48 48" fill="none"><path d="M24 24L11.5 20" stroke="#EAFFFF" stroke-width="1.5"></path><circle r="3" transform="matrix(1 0 0 -1 12 40)" stroke="#EAFFFF" stroke-width="2"></circle><circle r="4" transform="matrix(1 0 0 -1 39 37)" stroke="#EAFFFF" stroke-width="2"></circle><circle r="2.58131" transform="matrix(1 0 0 -1 37.4954 19.5828)" stroke="#EAFFFF" stroke-width="2"></circle><circle r="3" transform="matrix(1 0 0 -1 25 8)" stroke="#EAFFFF" stroke-width="2"></circle><circle r="3" transform="matrix(1 0 0 -1 9 19)" stroke="#EAFFFF" stroke-width="2"></circle><path d="M24 24L13.5 37.5" stroke="#EAFFFF" stroke-width="1.5"></path><path d="M24 24L35.9994 34.4551" stroke="#EAFFFF" stroke-width="1.5"></path><path d="M24 24L35 20.5" stroke="#EAFFFF" stroke-width="1.5"></path><path d="M24 24L25 11.2591" stroke="#EAFFFF" stroke-width="1.5"></path><circle r="6" transform="matrix(1 0 0 -1 24 24)" fill="#D1FF5F"></circle></svg> 